<svg width="170" height="32" viewBox="0 0 170 32" fill="none" xmlns="http://www.w3.org/2000/svg">
    <g id="Group 734">
        <g id="Group 733">
            <g id="Frame">
                <path id="Vector" d="M3.33331 8.69898L12.0071 3.74548L16.344 6.24377L7.71357 11.1542L11.7903 20.0274V13.5663L20.5074 8.56976L24.8443 11.068L16.1705 16.0215V30.6667L11.8336 28.2115L7.71357 19.4244V25.8855L3.33331 23.3441V8.69898Z" fill="#89D8D7"/>
                <path id="Vector_2" d="M10.1301 24.5786L7.71356 25.8854V19.4243L10.1301 24.5786Z" fill="#D2F0F0"/>
                <path id="Vector_3" d="M16.1271 1.33334L20.5941 3.91778V8.56976L24.6274 6.15762L29.0457 8.65814L24.8443 11.068L20.5499 8.57493L11.7902 13.5663V20.0274L7.71356 11.1542L16.344 6.24377L12.0071 3.74548L16.1271 1.33334Z" fill="#D2F0F0"/>
                <path id="Vector_4" d="M29.0501 23.3441V8.65588L16.2129 16.0215V30.6667L29.0501 23.3441Z" fill="#D2F0F0"/>
                <path id="Vector_5" d="M19.64 18.0107L25.4514 14.6862V21.3196L19.64 18.0107Z" fill="#43C1C0"/>
                <path id="Vector_6" d="M19.64 24.6794L25.4514 21.3197L19.64 18.0107V24.6794Z" fill="#89D8D7"/>
            </g>
        </g>
        <path id="&#230;&#149;&#176;&#230;&#141;&#174;&#229;&#174;&#137;&#229;&#133;&#168;&#232;&#175;&#132;&#228;&#188;&#176;&#231;&#179;&#187;&#231;&#187;&#159;" d="M52.72 11.736C52.656 11.96 52.608 12.168 52.544 12.392C52.896 13.976 53.328 15.368 53.856 16.568C54.336 15.16 54.608 13.544 54.672 11.736H52.72ZM53.088 18.28C52.576 17.224 52.128 16.04 51.744 14.728C51.504 15.256 51.248 15.752 50.992 16.2L49.952 14.904C50.832 13.144 51.424 10.792 51.728 7.848L53.36 8.136C53.264 8.84 53.168 9.496 53.056 10.12H57.056V11.736H56.176C56.08 14.312 55.616 16.504 54.768 18.328C55.536 19.608 56.448 20.616 57.504 21.336L56.576 22.696C55.584 21.96 54.704 21 53.952 19.816C53.2 20.936 52.272 21.896 51.184 22.68L50.32 21.272C51.472 20.504 52.4 19.512 53.088 18.28ZM45.52 15.272L47.088 15.464C46.992 15.704 46.912 15.944 46.832 16.168H50.048V17.512C49.776 18.44 49.296 19.272 48.592 19.976C49.216 20.248 49.824 20.536 50.416 20.856L49.52 22.168C48.912 21.8 48.176 21.416 47.312 21.016C46.256 21.688 44.944 22.216 43.36 22.632L42.592 21.24C43.744 20.984 44.736 20.648 45.584 20.264C44.944 19.992 44.256 19.72 43.552 19.448C43.936 18.808 44.272 18.184 44.56 17.592H42.976V16.168H45.2C45.312 15.848 45.424 15.56 45.52 15.272ZM47.088 19.352C47.744 18.84 48.24 18.248 48.576 17.592H46.208C46 18.008 45.776 18.408 45.552 18.792C46.064 18.952 46.576 19.144 47.088 19.352ZM44.544 8.088C44.88 8.68 45.184 9.32 45.44 10.008L44.256 10.536C43.936 9.768 43.6 9.096 43.248 8.504L44.544 8.088ZM49.04 8.072L50.208 8.632C49.888 9.304 49.488 9.96 48.992 10.6L47.824 10.008C48.336 9.352 48.752 8.712 49.04 8.072ZM43.008 10.776H45.984V7.88H47.52V10.776H50.24V12.232H47.52V12.264C48.352 12.6 49.2 12.984 50.064 13.416L49.2 14.728C48.528 14.2 47.968 13.784 47.52 13.48V15.16H45.984V12.648C45.44 13.736 44.608 14.68 43.456 15.512L42.624 14.168C43.664 13.576 44.432 12.936 44.912 12.232H43.008V10.776ZM60.64 22.52H59.28L58.928 20.952C59.328 21.016 59.712 21.064 60.08 21.064C60.416 21.064 60.592 20.856 60.592 20.456V17.224C60.048 17.416 59.52 17.608 58.976 17.784L58.544 16.136C59.232 15.976 59.92 15.784 60.592 15.56V12.36H58.864V10.744H60.592V7.912H62.224V10.744H63.584V12.36H62.224V14.904C62.672 14.696 63.104 14.488 63.52 14.264V15.896C63.072 16.12 62.64 16.328 62.224 16.536V20.872C62.224 21.96 61.696 22.52 60.64 22.52ZM65.696 15.624C65.504 18.296 64.896 20.648 63.888 22.696L62.576 21.528C63.616 19.496 64.144 16.872 64.16 13.672V8.36H72.928V12.6H70.048V14.104H73.28V15.624H70.048V17.16H72.576V22.664H71.04V22.008H67.44V22.664H65.904V17.16H68.416V15.624H65.696ZM68.416 12.6H65.776V13.672C65.776 13.816 65.76 13.96 65.76 14.104H68.416V12.6ZM67.44 20.536H71.04V18.632H67.44V20.536ZM71.296 9.88H65.776V11.128H71.296V9.88ZM88.896 9.272V12.968H87.2V10.888H76.784V12.952H75.088V9.272H81.008C80.816 8.824 80.592 8.424 80.352 8.04L82.24 7.72C82.464 8.184 82.672 8.696 82.896 9.272H88.896ZM74.896 13.704H79.296C79.744 12.872 80.16 12.056 80.56 11.256L82.288 11.784L81.28 13.704H89.136V15.304H86.096C85.472 16.824 84.8 18.04 84.08 18.968C85.632 19.624 87.232 20.392 88.88 21.288L87.744 22.76C86.128 21.8 84.512 20.952 82.88 20.216C81.072 21.784 78.72 22.6 75.824 22.68L74.848 21.128C77.44 21.128 79.536 20.568 81.136 19.448C79.728 18.856 78.304 18.328 76.88 17.88C77.424 17.016 77.936 16.168 78.416 15.304H74.896V13.704ZM80.384 15.304C79.968 16.024 79.584 16.664 79.232 17.224C80.272 17.512 81.344 17.88 82.432 18.296C83.168 17.464 83.776 16.456 84.256 15.304H80.384ZM97.408 7.816H98.592C100.592 9.864 102.896 11.48 105.504 12.664L104.672 14.152C103.904 13.784 103.168 13.384 102.464 12.952V14.392H98.848V16.632H103.296V18.248H98.848V20.616H104.752V22.248H91.264V20.616H97.152V18.248H92.688V16.632H97.152V14.392H93.536V12.936C92.816 13.384 92.064 13.8 91.264 14.184L90.448 12.696C93.232 11.384 95.552 9.768 97.408 7.816ZM93.792 12.776H102.192C100.608 11.784 99.216 10.632 98 9.336C96.832 10.6 95.424 11.752 93.792 12.776ZM112.16 8.456H120.96V10.024H117.36V15.576H121.456V17.16H117.36V22.68H115.728V17.16H111.696V15.576H115.728V10.024H112.16V8.456ZM119.216 10.568L120.672 10.952C120.352 12.488 119.936 13.816 119.44 14.968L118.048 14.472C118.496 13.448 118.88 12.136 119.216 10.568ZM113.728 10.616C114.144 11.784 114.528 13.128 114.864 14.648L113.44 15C113.152 13.64 112.768 12.344 112.304 11.096L113.728 10.616ZM108.848 7.96C109.856 8.744 110.72 9.528 111.44 10.296L110.288 11.464C109.68 10.728 108.8 9.944 107.664 9.112L108.848 7.96ZM106.576 12.584H110.384V19.16C110.784 18.792 111.216 18.376 111.664 17.928L112.128 19.688C111.136 20.632 110.096 21.48 108.976 22.232L108.352 20.728C108.624 20.488 108.768 20.2 108.768 19.864V14.184H106.576V12.584ZM125.904 7.72L127.488 8.456C127.072 9.72 126.544 10.92 125.904 12.04V22.696H124.224V14.504C123.84 14.984 123.424 15.464 123.008 15.912L122.448 14.136C124 12.312 125.152 10.184 125.904 7.72ZM127.104 10.856H131.296V7.88H132.992V10.856H137.376V12.472H132.992V15.352H136.48V22.664H134.832V22.04H129.568V22.664H127.904V15.352H131.296V12.472H127.104V10.856ZM129.568 20.44H134.832V16.936H129.568V20.44ZM145.456 22.616H143.632L143.248 20.984C143.808 21.048 144.352 21.096 144.88 21.096C145.184 21.096 145.344 20.92 145.344 20.584V17.192C143.84 17.288 142.224 17.384 140.464 17.464L140 16.008C140.528 15.96 141.008 15.864 141.44 15.704C142.544 15.224 143.776 14.504 145.12 13.528C143.872 13.624 142.544 13.704 141.168 13.784L140.832 12.328C141.232 12.28 141.6 12.184 141.952 12.024C142.512 11.752 143.2 11.16 144.032 10.232C142.784 10.264 141.504 10.296 140.16 10.296L139.68 8.856C144.256 8.856 148.144 8.552 151.344 7.96L152.16 9.352C150.448 9.704 148.432 9.96 146.096 10.12C145.328 11.016 144.512 11.784 143.664 12.392C144.72 12.328 145.792 12.248 146.848 12.168C147.504 11.624 148.176 11.032 148.88 10.392L150.416 11.144C147.936 13.272 145.776 14.872 143.952 15.928C146.032 15.784 147.872 15.624 149.44 15.432C149.104 14.984 148.752 14.536 148.4 14.088L149.632 13.32C150.96 14.872 151.984 16.232 152.688 17.4L151.36 18.312C151.072 17.8 150.736 17.288 150.384 16.76C149.36 16.872 148.24 16.968 147.024 17.064V21C147.024 22.072 146.496 22.616 145.456 22.616ZM149.168 17.736C150.736 18.888 152.064 20.024 153.136 21.16L151.952 22.344C151.04 21.256 149.744 20.072 148.064 18.808L149.168 17.736ZM142.656 17.848L143.824 18.888C142.752 20.184 141.424 21.32 139.824 22.28L138.784 20.92C140.32 20.04 141.6 19.016 142.656 17.848ZM160.112 18.664V20.248C158.656 20.984 157.008 21.592 155.152 22.04L154.944 20.376C156.912 19.944 158.64 19.368 160.112 18.664ZM157.232 7.784L158.832 8.408C158.096 10.264 157.344 11.768 156.576 12.952C157.056 12.904 157.536 12.84 158.016 12.76C158.272 12.248 158.56 11.688 158.864 11.096L160.352 11.672C159.104 14.024 158.064 15.768 157.232 16.904C158.176 16.648 159.136 16.296 160.112 15.864V17.4C158.352 18.136 156.704 18.616 155.152 18.856L154.704 17.32C155.008 17.192 155.264 17.032 155.456 16.84C155.904 16.36 156.48 15.512 157.184 14.296C156.48 14.392 155.744 14.504 155.008 14.616L154.592 13.08C154.848 12.968 155.088 12.76 155.312 12.44C156.048 11.032 156.688 9.48 157.232 7.784ZM160.56 15.128L160.208 13.656C160.352 13.608 160.464 13.56 160.528 13.528C160.976 13.176 161.568 12.328 162.288 10.968H159.904V9.384H163.744C163.568 8.904 163.376 8.44 163.152 8.024L164.848 7.736C165.04 8.216 165.232 8.776 165.424 9.384H168.896V10.968H164.032C163.456 12.056 162.944 12.888 162.496 13.496C163.712 13.384 164.912 13.224 166.096 13.032L165.232 11.832L166.512 11.032C167.552 12.392 168.352 13.576 168.912 14.584L167.616 15.496C167.424 15.144 167.216 14.776 166.992 14.424C165.024 14.712 162.88 14.952 160.56 15.128ZM161.696 15.544H163.328C163.232 17.592 162.992 19.08 162.576 20.024C162.112 21.032 161.344 21.912 160.256 22.648L159.184 21.304C160.08 20.728 160.704 20.056 161.072 19.288C161.424 18.536 161.632 17.288 161.696 15.544ZM167.616 22.376H166.64C165.44 22.376 164.848 21.848 164.848 20.808V15.352H166.432V20.472C166.432 20.712 166.512 20.856 166.688 20.904H167.536C167.808 20.872 167.952 20.648 167.984 20.248C168.016 19.816 168.048 19.224 168.048 18.488L169.472 19C169.472 20.536 169.344 21.464 169.12 21.816C168.896 22.136 168.384 22.312 167.616 22.376Z" fill="white"/>
    </g>
</svg>
